<?xml version="1.0" encoding="UTF-8" standalone="no"?>
<!DOCTYPE svg PUBLIC "-//W3C//DTD SVG 1.1//EN" "http://www.w3.org/Graphics/SVG/1.1/DTD/svg11.dtd">
<svg width="100%" height="100%" viewBox="0 0 90 147" version="1.1" xmlns="http://www.w3.org/2000/svg" xmlns:xlink="http://www.w3.org/1999/xlink" xml:space="preserve" xmlns:serif="http://www.serif.com/" style="fill-rule:evenodd;clip-rule:evenodd;stroke-linejoin:round;stroke-miterlimit:2;">
    <g id="Artboard1" transform="matrix(1,0,0,1,103.699,0)">
        <rect x="-103.699" y="0" width="89.75" height="146.025" style="fill:none;"/>
        <g transform="matrix(1,0,0,1,-107.624,-6.3925)">
            <clipPath id="_clip1">
                <rect x="10.01" y="12.79" width="341.67" height="133.23"/>
            </clipPath>
            <g clip-path="url(#_clip1)">
                <path d="M64.52,136.1C56.2,120.84 62.53,103.77 62.53,103.77L61.54,102.8C61.54,102.8 61.54,107.36 54.01,108.55C48.18,109.49 46.46,116.88 46.46,116.88C42.31,104.39 51.46,97.48 55.13,95.28C59.24,101.73 65.83,106.47 73.56,108.13C73.25,113.12 72.02,114.56 67.09,120.02C60.9,126.91 64.52,136.1 64.52,136.1M43.68,97.05C29.62,103.02 25.84,89.13 25.84,89.13C34.58,94.07 40.1,90.11 42.7,86.94C44.53,84.72 48.71,84.47 51.02,84.51C51.43,87.03 52.18,89.44 53.19,91.7C44.76,92.84 43.68,97.05 43.68,97.05M11.55,74.45C11.55,74.45 25.43,79.42 35.57,72.87C43.63,67.66 50.57,67.87 53.02,68.16C51.48,71.71 50.62,75.62 50.62,79.74C50.62,80.38 50.64,81.01 50.69,81.64C18.13,91.14 11.55,74.45 11.55,74.45M44.5,56.82C55.8,54.05 58.77,58.01 58.77,58.01L60.15,56.82C60.15,56.82 49.06,37.8 72.47,29.28C72.47,29.28 59.79,43.22 69.1,52.56C68.28,52.91 67.49,53.31 66.74,53.74C61.23,56.49 56.72,60.92 53.88,66.37C47.81,67.59 28.81,69.72 23.68,50.66C23.67,50.67 33.18,59.6 44.5,56.82M88.66,109.92C87.76,113.69 85.5,117.68 81.13,122.06C74.89,128.25 76.96,143.08 76.96,143.08C76.96,143.08 66.24,126.94 71.84,119.98C75.52,115.4 76.16,111.02 76.16,108.56C77.32,108.72 78.48,108.79 79.69,108.79C82.82,108.79 85.84,108.28 88.66,107.36L88.66,100.07C85.92,101.27 82.89,101.96 79.69,101.96C67.41,101.96 57.47,92.02 57.47,79.75C57.47,67.47 67.41,57.51 79.69,57.51C82.89,57.51 85.92,58.21 88.66,59.42L88.66,52.12C85.84,51.19 82.82,50.7 79.69,50.7C77.13,50.7 74.67,51.03 72.3,51.65C71.51,50.98 66.16,46.22 70.46,40.81C75.11,34.96 83.79,32.12 81.99,16.41C81.99,16.41 94.27,23.45 84.53,37.82C84.53,37.82 77.06,42.45 80.66,48.88L81.85,48.73C81.85,48.73 81.25,45.75 86.19,44.4C87.17,44.13 87.98,43.77 88.67,43.33L88.67,12.79L10.01,12.79L10.01,146.03L88.66,146.03L88.66,109.92Z" style="fill:rgb(170,0,79);fill-rule:nonzero;"/>
            </g>
        </g>
    </g>
</svg>
