<?xml version="1.0" encoding="UTF-8" standalone="no"?>
<!DOCTYPE svg PUBLIC "-//W3C//DTD SVG 1.1//EN" "http://www.w3.org/Graphics/SVG/1.1/DTD/svg11.dtd">
<svg width="100%" height="100%" viewBox="0 0 362 159" version="1.1" xmlns="http://www.w3.org/2000/svg" xmlns:xlink="http://www.w3.org/1999/xlink" xml:space="preserve" xmlns:serif="http://www.serif.com/" style="fill-rule:evenodd;clip-rule:evenodd;stroke-linejoin:round;stroke-miterlimit:2;">
    <g>
        <g>
            <path d="M298.16,56.87C298.16,59.78 298.26,62.66 298.45,65.45L298.32,65.45C296.57,62.74 294.79,60.14 293.01,57.6L281.52,41.53L277.97,41.53L277.97,70.36L281.53,70.36L281.53,55.64C281.53,52.13 281.43,49.07 281.25,46.44L281.38,46.44C282.93,48.86 284.71,51.48 286.7,54.28L298.18,70.35L301.75,70.35L301.75,41.52L298.16,41.52L298.16,56.87Z" style="fill:white;fill-rule:nonzero;"/>
        </g>
        <path d="M204.98,57.17L217.59,57.17L217.59,54.01L204.98,54.01L204.98,44.7L219.16,44.7L219.16,41.52L201.39,41.52L201.39,70.36L219.98,70.36L219.98,67.18L204.98,67.18L204.98,57.17Z" style="fill:white;fill-rule:nonzero;"/>
        <g>
            <path d="M240.49,56.41C239.26,59.61 238.13,62.78 237.08,65.93L236.99,65.93C235.93,62.78 234.78,59.61 233.55,56.41L227.93,41.58L224.36,41.58L235.47,70.41L238.58,70.41L249.69,41.58L246.12,41.58L240.49,56.41Z" style="fill:white;fill-rule:nonzero;"/>
        </g>
        <path d="M258.4,57.17L271.04,57.17L271.04,54.01L258.4,54.01L258.4,44.7L272.6,44.7L272.6,41.52L254.83,41.52L254.83,70.36L273.42,70.36L273.42,67.18L258.4,67.18L258.4,57.17Z" style="fill:white;fill-rule:nonzero;"/>
        <path d="M306.33,44.7L316.11,44.7L316.11,70.35L319.68,70.35L319.68,44.7L329.45,44.7L329.45,41.52L306.33,41.52L306.33,44.7Z" style="fill:white;fill-rule:nonzero;"/>
        <g>
            <path d="M350.89,58.71C350.36,57.76 349.66,57.01 348.8,56.44C347.95,55.84 346.97,55.39 345.88,55.06C344.78,54.73 343.66,54.42 342.52,54.16C341.68,53.97 340.87,53.75 340.1,53.52C339.32,53.28 338.65,52.99 338.05,52.63C337.46,52.28 336.99,51.81 336.64,51.26C336.3,50.72 336.12,50.01 336.12,49.16C336.12,48.41 336.25,47.7 336.51,47.09C336.76,46.46 337.18,45.93 337.72,45.48C338.25,45.04 338.93,44.71 339.75,44.47C340.58,44.23 341.52,44.13 342.64,44.13C344.13,44.14 345.49,44.31 346.79,44.63C348.08,44.93 349.33,45.35 350.54,45.85L350.54,42.59C349.41,42.11 348.18,41.73 346.84,41.44C345.47,41.16 344.04,40.99 342.46,40.99C341.09,40.99 339.8,41.16 338.59,41.49C337.38,41.83 336.31,42.33 335.37,43.02C334.44,43.71 333.71,44.59 333.17,45.65C332.63,46.7 332.36,47.96 332.36,49.42C332.36,50.83 332.62,51.99 333.15,52.89C333.66,53.8 334.34,54.53 335.19,55.1C336.05,55.68 337.02,56.13 338.1,56.45C339.19,56.78 340.3,57.06 341.45,57.32C342.31,57.52 343.13,57.75 343.9,57.96C344.67,58.2 345.38,58.49 345.97,58.85C346.56,59.24 347.05,59.69 347.4,60.25C347.75,60.8 347.94,61.53 347.94,62.37C347.94,63.44 347.73,64.31 347.32,65.01C346.91,65.69 346.37,66.25 345.66,66.65C344.95,67.06 344.15,67.33 343.22,67.51C342.3,67.69 341.32,67.77 340.3,67.77C339.67,67.77 339.01,67.72 338.27,67.63C337.56,67.55 336.86,67.42 336.16,67.29C335.47,67.15 334.78,66.95 334.13,66.73C333.47,66.53 332.9,66.29 332.36,66.03L332.36,69.24C332.7,69.45 333.15,69.64 333.74,69.85C334.32,70.06 334.99,70.23 335.7,70.38C336.4,70.54 337.19,70.67 337.98,70.77C338.77,70.87 339.56,70.91 340.3,70.91C341.94,70.91 343.48,70.75 344.84,70.4C346.24,70.07 347.43,69.54 348.44,68.84C349.46,68.14 350.25,67.26 350.83,66.17C351.4,65.09 351.68,63.8 351.68,62.31C351.67,60.82 351.42,59.63 350.89,58.71" style="fill:white;fill-rule:nonzero;"/>
            <path d="M307.23,120.8C307.03,120.62 306.8,120.46 306.55,120.34C306.27,120.24 306,120.17 305.7,120.17C305.4,120.17 305.14,120.24 304.87,120.34C304.59,120.46 304.36,120.63 304.19,120.8C303.99,121.01 303.84,121.23 303.73,121.48C303.62,121.74 303.55,122.04 303.55,122.33C303.55,122.95 303.76,123.44 304.17,123.84C304.59,124.26 305.1,124.46 305.7,124.46C306,124.46 306.27,124.42 306.55,124.31C306.8,124.19 307.04,124.05 307.23,123.85C307.43,123.66 307.58,123.44 307.69,123.19C307.81,122.92 307.84,122.63 307.84,122.34C307.84,122.05 307.81,121.75 307.69,121.49C307.59,121.23 307.43,121.01 307.23,120.8M312.98,120.8C312.79,120.62 312.56,120.46 312.3,120.34C312.05,120.24 311.76,120.17 311.46,120.17C311.16,120.17 310.89,120.24 310.63,120.34C310.35,120.46 310.13,120.63 309.93,120.8C309.74,121.01 309.6,121.23 309.48,121.48C309.36,121.74 309.31,122.04 309.31,122.33C309.31,122.95 309.51,123.44 309.92,123.84C310.34,124.26 310.85,124.46 311.45,124.46C311.75,124.46 312.03,124.42 312.29,124.31C312.55,124.19 312.79,124.05 312.97,123.85C313.17,123.66 313.32,123.44 313.45,123.19C313.56,122.92 313.61,122.63 313.61,122.34C313.61,122.05 313.56,121.75 313.45,121.49C313.34,121.23 313.18,121.01 312.98,120.8M348.06,100.02L348.06,112.02L345.13,112.02C344.13,112.02 343.16,111.93 342.3,111.75C341.41,111.57 340.64,111.24 339.95,110.77L339.95,102.23L336.31,102.23L336.31,109.73C336.31,110.51 336.2,111.09 335.95,111.46C335.7,111.83 335.35,112.02 334.93,112.02L333.52,112.02C332.55,112.02 331.63,111.93 330.76,111.76C329.88,111.58 329.08,111.25 328.35,110.74L328.35,103.96L324.71,103.96L324.71,109.73C324.71,110.51 324.59,111.09 324.34,111.46C324.1,111.83 323.77,112.02 323.32,112.02L315.76,112.02C314.61,112.02 313.62,111.91 312.8,111.7C311.97,111.5 311.26,111.18 310.65,110.77L310.65,100.06L307,100.06L307,109.73C307,110.51 306.87,111.09 306.62,111.46C306.37,111.83 306.02,112.02 305.58,112.02L301.32,112.02C300.19,112.02 299.18,111.91 298.36,111.7C297.52,111.5 296.81,111.18 296.2,110.77L296.2,100.06L292.56,100.06L292.56,109.73C292.56,110.51 292.43,111.09 292.2,111.46C291.95,111.83 291.59,112.02 291.17,112.02L286.59,112.02C286.22,112.02 285.91,111.98 285.64,111.89C285.37,111.82 285.13,111.65 284.96,111.39C284.77,111.13 284.65,110.76 284.55,110.28C284.46,109.81 284.42,109.15 284.42,108.32L284.42,100.03L279.04,100.03C276.18,100.03 274.09,100.69 272.73,102.05C271.36,103.39 270.69,105.41 270.69,108.08L270.69,114.84C270.69,115.58 270.48,116.32 270.08,117.02C269.68,117.73 269.12,118.35 268.37,118.9C267.62,119.45 266.71,119.89 265.62,120.22C264.55,120.55 263.34,120.7 261.98,120.7C260.59,120.7 259.37,120.59 258.34,120.38C257.32,120.14 256.43,119.83 255.71,119.44C254.98,119.06 254.38,118.63 253.91,118.12C253.44,117.6 253.07,117.09 252.8,116.55C252.53,116.02 252.35,115.48 252.24,114.94C252.14,114.4 252.1,113.9 252.1,113.44C252.1,112.94 252.13,112.42 252.22,111.91C252.31,111.4 252.42,110.88 252.57,110.4C252.73,109.89 252.9,109.42 253.12,108.97C253.33,108.53 253.57,108.12 253.82,107.77L250.81,106.14C250.47,106.57 250.15,107.06 249.87,107.62C249.56,108.18 249.31,108.8 249.1,109.46C248.89,110.12 248.73,110.81 248.62,111.53C248.5,112.26 248.43,113.01 248.43,113.75C248.43,114.33 248.51,114.99 248.66,115.76C248.81,116.52 249.09,117.29 249.47,118.1C249.86,118.89 250.38,119.66 251.02,120.44C251.68,121.21 252.51,121.88 253.51,122.49C254.51,123.1 255.71,123.57 257.09,123.93C258.48,124.29 260.09,124.47 261.94,124.47C263.88,124.47 265.62,124.18 267.15,123.61C268.66,123.06 269.98,122.27 271.02,121.35C272.08,120.43 272.89,119.34 273.45,118.14C274.01,116.95 274.29,115.71 274.29,114.47L274.29,108.5C274.29,107.43 274.42,106.57 274.7,105.92C274.95,105.27 275.34,104.76 275.83,104.41C276.33,104.04 276.92,103.79 277.63,103.67C278.32,103.56 279.12,103.48 280.01,103.48L280.75,103.48L280.75,109.82C280.75,110.9 280.88,111.82 281.2,112.57C281.48,113.33 281.87,113.93 282.36,114.39C282.86,114.84 283.41,115.17 284.02,115.38C284.65,115.58 285.29,115.68 285.94,115.68L291.88,115.68C292.74,115.68 293.44,115.49 294.03,115.13C294.57,114.74 295.03,114.3 295.36,113.75C296.02,114.31 296.81,114.78 297.74,115.14C298.68,115.5 299.85,115.68 301.23,115.68L306.3,115.68C307.16,115.68 307.86,115.49 308.43,115.13C308.99,114.74 309.45,114.3 309.78,113.75C310.45,114.31 311.24,114.78 312.17,115.14C313.09,115.5 314.26,115.68 315.67,115.68L324,115.68C324.87,115.68 325.58,115.5 326.16,115.14C326.72,114.78 327.17,114.32 327.5,113.78C327.91,114.11 328.35,114.43 328.82,114.66C329.28,114.9 329.78,115.1 330.3,115.24C330.8,115.38 331.32,115.49 331.85,115.57C332.38,115.62 332.9,115.67 333.43,115.67L335.61,115.67C336.46,115.67 337.16,115.49 337.72,115.13C338.28,114.79 338.73,114.33 339.07,113.78C339.51,114.16 339.98,114.48 340.49,114.71C340.99,114.96 341.52,115.16 342.04,115.3C342.56,115.43 343.08,115.54 343.6,115.59C344.1,115.65 344.58,115.68 345.03,115.68L351.62,115.68L351.62,100.04L348.06,100.04L348.06,100.02ZM266.51,127.88C266.32,127.68 266.08,127.53 265.83,127.43C265.55,127.31 265.28,127.25 264.98,127.25C264.68,127.25 264.42,127.31 264.16,127.43C263.89,127.53 263.66,127.68 263.48,127.88C263.28,128.09 263.14,128.31 263.03,128.57C262.92,128.84 262.84,129.1 262.84,129.41C262.84,130 263.06,130.52 263.46,130.95C263.88,131.35 264.38,131.54 264.99,131.54C265.29,131.54 265.56,131.48 265.84,131.38C266.09,131.27 266.34,131.12 266.52,130.93C266.71,130.74 266.87,130.51 266.98,130.25C267.1,129.98 267.15,129.72 267.15,129.41C267.15,129.1 267.11,128.84 266.98,128.57C266.86,128.31 266.69,128.09 266.51,127.88M291.4,94.93C291.69,94.93 291.96,94.87 292.24,94.74C292.49,94.64 292.73,94.48 292.93,94.3C293.12,94.11 293.27,93.87 293.38,93.62C293.5,93.36 293.56,93.08 293.56,92.78C293.56,92.48 293.5,92.21 293.38,91.94C293.27,91.68 293.11,91.46 292.93,91.25C292.73,91.06 292.49,90.9 292.24,90.8C291.97,90.69 291.7,90.62 291.4,90.62C291.1,90.62 290.83,90.68 290.56,90.8C290.3,90.9 290.07,91.07 289.88,91.25C289.69,91.46 289.54,91.68 289.43,91.94C289.32,92.21 289.26,92.48 289.26,92.78C289.26,93.4 289.46,93.89 289.88,94.31C290.3,94.72 290.79,94.93 291.4,94.93M260.73,127.88C260.53,127.68 260.31,127.53 260.04,127.43C259.8,127.31 259.51,127.25 259.21,127.25C258.9,127.25 258.62,127.31 258.37,127.43C258.11,127.53 257.88,127.68 257.7,127.88C257.5,128.09 257.36,128.31 257.23,128.57C257.12,128.84 257.06,129.1 257.06,129.41C257.06,130 257.28,130.52 257.69,130.95C258.09,131.35 258.6,131.54 259.21,131.54C259.51,131.54 259.79,131.48 260.04,131.38C260.32,131.27 260.54,131.12 260.73,130.93C260.93,130.74 261.1,130.51 261.22,130.25C261.33,129.98 261.38,129.72 261.38,129.41C261.38,129.1 261.33,128.84 261.22,128.57C261.1,128.31 260.93,128.09 260.73,127.88M297.16,94.93C297.46,94.93 297.75,94.87 298.01,94.74C298.27,94.64 298.48,94.48 298.69,94.3C298.89,94.11 299.04,93.87 299.16,93.62C299.27,93.36 299.32,93.08 299.32,92.78C299.32,92.48 299.26,92.21 299.16,91.94C299.04,91.68 298.88,91.46 298.69,91.25C298.48,91.06 298.27,90.9 298.01,90.8C297.76,90.69 297.46,90.62 297.16,90.62C296.87,90.62 296.6,90.68 296.32,90.8C296.06,90.9 295.84,91.07 295.65,91.25C295.46,91.46 295.31,91.68 295.19,91.94C295.08,92.21 295.02,92.48 295.02,92.78C295.02,93.4 295.22,93.89 295.63,94.31C296.05,94.72 296.56,94.93 297.16,94.93" style="fill:white;fill-rule:nonzero;"/>
            <path d="M166.08,94.93C166.37,94.93 166.66,94.87 166.94,94.74C167.19,94.64 167.44,94.48 167.64,94.3C167.83,94.11 167.98,93.87 168.09,93.62C168.21,93.36 168.27,93.08 168.27,92.78C168.27,92.48 168.21,92.21 168.09,91.94C167.98,91.68 167.82,91.46 167.64,91.25C167.44,91.06 167.2,90.9 166.94,90.8C166.67,90.69 166.37,90.62 166.08,90.62C165.77,90.62 165.49,90.68 165.22,90.8C164.94,90.9 164.74,91.07 164.54,91.25C164.33,91.46 164.19,91.68 164.06,91.94C163.96,92.21 163.89,92.48 163.89,92.78C163.89,93.4 164.11,93.89 164.52,94.31C164.94,94.72 165.46,94.93 166.08,94.93" style="fill:white;fill-rule:nonzero;"/>
            <path d="M199.91,94.93C200.21,94.93 200.48,94.87 200.77,94.74C201.02,94.64 201.25,94.48 201.45,94.3C201.66,94.11 201.8,93.87 201.92,93.62C202.04,93.36 202.1,93.08 202.1,92.78C202.1,92.48 202.04,92.21 201.92,91.94C201.8,91.68 201.66,91.46 201.45,91.25C201.25,91.06 201.02,90.9 200.77,90.8C200.48,90.69 200.21,90.62 199.91,90.62C199.6,90.62 199.31,90.68 199.06,90.8C198.78,90.9 198.55,91.07 198.38,91.25C198.17,91.46 198.03,91.68 197.91,91.94C197.79,92.21 197.73,92.48 197.73,92.78C197.73,93.4 197.94,93.89 198.36,94.31C198.77,94.72 199.28,94.93 199.91,94.93" style="fill:white;fill-rule:nonzero;"/>
            <path d="M206.24,94.93C206.53,94.93 206.82,94.87 207.09,94.74C207.36,94.64 207.6,94.48 207.8,94.3C208,94.11 208.16,93.87 208.28,93.62C208.38,93.36 208.46,93.08 208.46,92.78C208.46,92.48 208.38,92.21 208.28,91.94C208.16,91.68 208,91.46 207.8,91.25C207.6,91.06 207.36,90.9 207.09,90.8C206.83,90.69 206.54,90.62 206.24,90.62C205.93,90.62 205.67,90.68 205.39,90.8C205.13,90.9 204.9,91.07 204.7,91.25C204.51,91.46 204.37,91.68 204.25,91.94C204.13,92.21 204.07,92.48 204.07,92.78C204.07,93.4 204.28,93.89 204.7,94.31C205.11,94.72 205.63,94.93 206.24,94.93" style="fill:white;fill-rule:nonzero;"/>
            <path d="M202.99,89.17C203.3,89.17 203.59,89.1 203.85,88.99C204.12,88.87 204.36,88.71 204.53,88.54C204.74,88.35 204.89,88.13 205.02,87.87C205.13,87.6 205.19,87.32 205.19,87.02C205.19,86.73 205.13,86.45 205.02,86.19C204.9,85.91 204.74,85.69 204.53,85.49C204.35,85.29 204.11,85.14 203.85,85.03C203.59,84.91 203.3,84.85 202.99,84.85C202.69,84.85 202.42,84.91 202.15,85.03C201.87,85.14 201.64,85.3 201.44,85.49C201.26,85.69 201.09,85.91 200.98,86.19C200.88,86.44 200.82,86.73 200.82,87.02C200.82,87.64 201.03,88.16 201.45,88.55C201.87,88.96 202.38,89.17 202.99,89.17" style="fill:white;fill-rule:nonzero;"/>
            <path d="M180.1,94.93C180.4,94.93 180.68,94.87 180.95,94.74C181.23,94.64 181.46,94.48 181.67,94.3C181.86,94.11 182.01,93.87 182.12,93.62C182.24,93.36 182.3,93.08 182.3,92.78C182.3,92.48 182.25,92.21 182.12,91.94C182.01,91.68 181.85,91.46 181.67,91.25C181.46,91.06 181.23,90.9 180.95,90.8C180.69,90.69 180.4,90.62 180.1,90.62C179.79,90.62 179.52,90.68 179.25,90.8C178.98,90.9 178.75,91.07 178.55,91.25C178.35,91.46 178.2,91.68 178.09,91.94C177.99,92.21 177.92,92.48 177.92,92.78C177.92,93.4 178.12,93.89 178.54,94.31C178.97,94.72 179.48,94.93 180.1,94.93" style="fill:white;fill-rule:nonzero;"/>
            <path d="M160.22,94.93C160.52,94.93 160.82,94.87 161.08,94.74C161.34,94.64 161.57,94.48 161.77,94.3C161.97,94.11 162.12,93.87 162.24,93.62C162.36,93.36 162.41,93.08 162.41,92.78C162.41,92.48 162.36,92.21 162.24,91.94C162.12,91.68 161.97,91.46 161.77,91.25C161.57,91.06 161.34,90.9 161.08,90.8C160.82,90.69 160.52,90.62 160.22,90.62C159.93,90.62 159.64,90.68 159.37,90.8C159.11,90.9 158.87,91.07 158.68,91.25C158.5,91.46 158.34,91.68 158.23,91.94C158.11,92.21 158.05,92.48 158.05,92.78C158.05,93.4 158.26,93.89 158.68,94.31C159.08,94.72 159.61,94.93 160.22,94.93" style="fill:white;fill-rule:nonzero;"/>
        </g>
        <rect x="230.08" y="86.63" width="3.69" height="29.05" style="fill:white;"/>
        <g>
            <path d="M207.28,108.61C207.17,109.11 207.04,109.57 206.88,109.98C206.71,110.4 206.54,110.81 206.36,111.15C206.15,111.5 205.98,111.79 205.82,112.02L204.52,112.02C203.68,112.02 202.89,111.89 202.16,111.65C201.44,111.41 200.8,111.04 200.24,110.59C199.7,110.13 199.26,109.59 198.95,108.94C198.64,108.3 198.48,107.58 198.48,106.79C198.48,106.07 198.62,105.43 198.9,104.88C199.18,104.35 199.53,103.9 199.96,103.57C200.4,103.22 200.9,102.96 201.45,102.79C202,102.63 202.57,102.55 203.13,102.55C203.69,102.55 204.24,102.64 204.75,102.84C205.27,103.04 205.74,103.32 206.13,103.71C206.54,104.09 206.85,104.57 207.08,105.12C207.34,105.69 207.45,106.34 207.45,107.08C207.44,107.62 207.39,108.13 207.28,108.61M217.84,100L217.84,112.02L209.72,112.02C209.85,111.74 210,111.4 210.17,111.01C210.34,110.6 210.49,110.17 210.65,109.69C210.8,109.19 210.94,108.68 211.02,108.13C211.13,107.58 211.19,107.02 211.19,106.43C211.19,105.44 211.02,104.51 210.72,103.64C210.41,102.78 209.94,102.02 209.31,101.37C208.69,100.72 207.92,100.2 207.02,99.83C206.12,99.46 205.05,99.27 203.86,99.27C202.51,99.27 201.29,99.49 200.19,99.91C199.09,100.33 198.16,100.9 197.41,101.64C196.64,102.36 196.07,103.21 195.65,104.17C195.23,105.13 195.03,106.16 195.03,107.21C195.03,107.55 195.07,107.94 195.15,108.36C195.23,108.76 195.37,109.2 195.55,109.62C195.72,110.06 195.94,110.48 196.2,110.88C196.46,111.29 196.77,111.64 197.15,111.95L197.17,112.04L187.33,112.04C186.16,112.04 185.15,111.93 184.31,111.72C183.48,111.52 182.73,111.2 182.13,110.78L182.13,100.07L178.44,100.07L178.44,109.74C178.44,110.52 178.3,111.1 178.05,111.47C177.8,111.84 177.44,112.03 177.02,112.03L170.32,112.03C169.16,112.03 168.16,111.92 167.32,111.71C166.47,111.51 165.74,111.19 165.13,110.77L165.13,100.06L161.43,100.06L161.43,109.73C161.43,110.51 161.31,111.09 161.06,111.46C160.82,111.83 160.46,112.02 160.02,112.02L154.91,112.02C153.63,112.02 152.53,111.89 151.64,111.64C150.74,111.39 149.96,111 149.34,110.47L149.34,100.03L145.64,100.03L145.64,109.74C145.64,110.52 145.5,111.1 145.26,111.47C145.01,111.84 144.65,112.03 144.21,112.03L142.79,112.03C141.71,112.03 140.73,111.92 139.79,111.71C138.89,111.5 138.08,111.13 137.39,110.63L137.39,102.24L133.7,102.24L133.7,109.74C133.7,110.52 133.57,111.1 133.31,111.47C133.07,111.84 132.73,112.03 132.29,112.03L130.87,112.03C129.96,112.03 129.09,111.98 128.27,111.81C127.42,111.66 126.66,111.4 125.97,110.97C125.92,110.39 125.85,109.81 125.74,109.18C125.63,108.57 125.5,107.97 125.38,107.38C125.24,106.8 125.09,106.23 124.93,105.69C124.76,105.16 124.61,104.68 124.45,104.23L120.82,105.25C121.06,105.78 121.28,106.34 121.46,106.99C121.67,107.62 121.82,108.26 121.95,108.86C122.07,109.49 122.16,110.07 122.24,110.62C122.31,111.19 122.34,111.65 122.34,112.04C122.34,113.4 122.15,114.62 121.77,115.69C121.39,116.77 120.83,117.67 120.11,118.42C119.38,119.17 118.49,119.76 117.45,120.14C116.38,120.55 115.19,120.75 113.83,120.75C112.57,120.75 111.45,120.55 110.47,120.14C109.5,119.75 108.67,119.22 108.01,118.53C107.35,117.85 106.84,117.05 106.51,116.13C106.17,115.2 105.99,114.21 105.99,113.16C105.99,112.67 106.02,112.18 106.08,111.68C106.17,111.17 106.26,110.68 106.39,110.2C106.51,109.7 106.67,109.24 106.84,108.8C107.01,108.37 107.2,107.96 107.42,107.63L104.29,105.9C103.97,106.39 103.69,106.94 103.41,107.54C103.15,108.15 102.91,108.8 102.73,109.48C102.53,110.15 102.39,110.85 102.27,111.55C102.14,112.24 102.09,112.95 102.09,113.62C102.09,115.02 102.32,116.39 102.79,117.66C103.25,118.96 103.97,120.11 104.92,121.08C105.87,122.06 107.05,122.84 108.47,123.43C109.9,124.03 111.6,124.32 113.54,124.32C115.32,124.32 116.91,124.08 118.34,123.58C119.77,123.11 120.99,122.45 122.03,121.57C123.06,120.7 123.89,119.65 124.52,118.45C125.16,117.23 125.6,115.9 125.83,114.45C126.58,114.89 127.41,115.19 128.27,115.35C129.11,115.55 129.98,115.64 130.85,115.64L133.05,115.64C133.96,115.64 134.7,115.45 135.3,115.06C135.86,114.68 136.32,114.2 136.68,113.64C137.51,114.39 138.48,114.9 139.54,115.19C140.61,115.49 141.69,115.64 142.77,115.64L144.99,115.64C145.92,115.64 146.68,115.43 147.28,115.02C147.89,114.6 148.34,114.11 148.68,113.51C149.02,113.82 149.37,114.12 149.79,114.37C150.2,114.62 150.65,114.84 151.16,115.02C151.67,115.21 152.24,115.37 152.86,115.47C153.47,115.57 154.15,115.64 154.91,115.64L160.81,115.64C161.69,115.64 162.42,115.45 162.98,115.09C163.56,114.7 164.02,114.26 164.36,113.71C165.02,114.27 165.83,114.74 166.77,115.1C167.71,115.47 168.91,115.64 170.33,115.64L177.82,115.64C178.69,115.64 179.41,115.45 179.99,115.09C180.55,114.7 181.01,114.26 181.35,113.71C182.03,114.27 182.83,114.74 183.78,115.1C184.73,115.47 185.9,115.64 187.34,115.64L187.57,115.64C187.57,115.64 196.92,115.6 199.95,115.6C202.98,115.6 204.8,114.96 204.8,114.96C205.91,115.19 207.14,115.37 208.47,115.47C209.78,115.57 211.25,115.64 212.86,115.64L221.61,115.64L221.61,100L217.84,100Z" style="fill:white;fill-rule:nonzero;"/>
            <path d="M220.88,120.8C220.67,120.62 220.44,120.46 220.17,120.34C219.89,120.24 219.63,120.17 219.32,120.17C219.01,120.17 218.75,120.24 218.47,120.34C218.21,120.46 217.97,120.62 217.78,120.8C217.59,121.01 217.44,121.23 217.33,121.48C217.21,121.74 217.14,122.04 217.14,122.33C217.14,122.95 217.35,123.44 217.78,123.84C218.2,124.26 218.71,124.46 219.32,124.46C219.63,124.46 219.89,124.42 220.17,124.31C220.44,124.19 220.67,124.05 220.88,123.85C221.08,123.66 221.23,123.44 221.35,123.19C221.46,122.92 221.53,122.63 221.53,122.34C221.53,122.05 221.46,121.75 221.35,121.49C221.23,121.23 221.08,121.01 220.88,120.8" style="fill:white;fill-rule:nonzero;"/>
            <path d="M215.03,120.8C214.83,120.62 214.6,120.46 214.33,120.34C214.08,120.24 213.78,120.17 213.47,120.17C213.17,120.17 212.89,120.24 212.62,120.34C212.36,120.46 212.12,120.62 211.94,120.8C211.74,121.01 211.59,121.23 211.48,121.48C211.37,121.74 211.3,122.04 211.3,122.33C211.3,122.95 211.51,123.44 211.92,123.84C212.35,124.26 212.88,124.46 213.47,124.46C213.78,124.46 214.08,124.42 214.33,124.31C214.6,124.19 214.84,124.05 215.03,123.85C215.22,123.66 215.37,123.44 215.5,123.19C215.61,122.92 215.68,122.63 215.68,122.34C215.68,122.05 215.61,121.75 215.5,121.49C215.37,121.23 215.22,121.01 215.03,120.8" style="fill:white;fill-rule:nonzero;"/>
            <path d="M102.04,55.94C102.04,64.2 108.83,70.89 117.23,70.89C119.52,70.89 121.69,70.36 123.64,69.47L123.64,65.48C121.8,66.68 119.6,67.39 117.23,67.39C110.82,67.39 105.6,62.25 105.6,55.94C105.6,49.63 110.81,44.5 117.23,44.5C119.6,44.5 121.8,45.21 123.64,46.41L123.64,42.42C121.69,41.52 119.52,40.99 117.23,40.99C108.83,40.98 102.04,47.69 102.04,55.94" style="fill:white;fill-rule:nonzero;"/>
        </g>
        <path d="M136.67,44.7L146.46,44.7L146.46,70.35L150.03,70.35L150.03,44.7L159.81,44.7L159.81,41.52L136.67,41.52L136.67,44.7Z" style="fill:white;fill-rule:nonzero;"/>
        <path d="M185.55,41.52L177.06,55.54L176.96,55.54L168.46,41.52L164.57,41.52L175.22,58.76L175.22,70.36L178.78,70.36L178.78,58.76L189.44,41.52L185.55,41.52Z" style="fill:white;fill-rule:nonzero;"/>
        <rect x="128.34" y="41.52" width="3.58" height="28.83" style="fill:white;"/>
        <g>
            <clipPath id="_clip1">
                <rect x="10.01" y="12.79" width="341.67" height="133.23"/>
            </clipPath>
            <g clip-path="url(#_clip1)">
                <path d="M64.52,136.1C56.2,120.84 62.53,103.77 62.53,103.77L61.54,102.8C61.54,102.8 61.54,107.36 54.01,108.55C48.18,109.49 46.46,116.88 46.46,116.88C42.31,104.39 51.46,97.48 55.13,95.28C59.24,101.73 65.83,106.47 73.56,108.13C73.25,113.12 72.02,114.56 67.09,120.02C60.9,126.91 64.52,136.1 64.52,136.1M43.68,97.05C29.62,103.02 25.84,89.13 25.84,89.13C34.58,94.07 40.1,90.11 42.7,86.94C44.53,84.72 48.71,84.47 51.02,84.51C51.43,87.03 52.18,89.44 53.19,91.7C44.76,92.84 43.68,97.05 43.68,97.05M11.55,74.45C11.55,74.45 25.43,79.42 35.57,72.87C43.63,67.66 50.57,67.87 53.02,68.16C51.48,71.71 50.62,75.62 50.62,79.74C50.62,80.38 50.64,81.01 50.69,81.64C18.13,91.14 11.55,74.45 11.55,74.45M44.5,56.82C55.8,54.05 58.77,58.01 58.77,58.01L60.15,56.82C60.15,56.82 49.06,37.8 72.47,29.28C72.47,29.28 59.79,43.22 69.1,52.56C68.28,52.91 67.49,53.31 66.74,53.74C61.23,56.49 56.72,60.92 53.88,66.37C47.81,67.59 28.81,69.72 23.68,50.66C23.67,50.67 33.18,59.6 44.5,56.82M88.66,109.92C87.76,113.69 85.5,117.68 81.13,122.06C74.89,128.25 76.96,143.08 76.96,143.08C76.96,143.08 66.24,126.94 71.84,119.98C75.52,115.4 76.16,111.02 76.16,108.56C77.32,108.72 78.48,108.79 79.69,108.79C82.82,108.79 85.84,108.28 88.66,107.36L88.66,100.07C85.92,101.27 82.89,101.96 79.69,101.96C67.41,101.96 57.47,92.02 57.47,79.75C57.47,67.47 67.41,57.51 79.69,57.51C82.89,57.51 85.92,58.21 88.66,59.42L88.66,52.12C85.84,51.19 82.82,50.7 79.69,50.7C77.13,50.7 74.67,51.03 72.3,51.65C71.51,50.98 66.16,46.22 70.46,40.81C75.11,34.96 83.79,32.12 81.99,16.41C81.99,16.41 94.27,23.45 84.53,37.82C84.53,37.82 77.06,42.45 80.66,48.88L81.85,48.73C81.85,48.73 81.25,45.75 86.19,44.4C87.17,44.13 87.98,43.77 88.67,43.33L88.67,12.79L10.01,12.79L10.01,146.03L88.66,146.03L88.66,109.92Z" style="fill:white;fill-rule:nonzero;"/>
            </g>
        </g>
    </g>
</svg>
