<?xml version="1.0" encoding="utf-8"?>
<!-- Generator: Adobe Illustrator 25.4.1, SVG Export Plug-In . SVG Version: 6.00 Build 0)  -->
<svg version="1.1" id="Layer_1" xmlns="http://www.w3.org/2000/svg" xmlns:xlink="http://www.w3.org/1999/xlink" x="0px" y="0px"
	 viewBox="0 0 361.68 158.82" style="enable-background:new 0 0 361.68 158.82;" xml:space="preserve">
<style type="text/css">
	.st0{clip-path:url(#SVGID_00000005246575753459935130000000577620310259918225_);fill:#2A2523;}
	.st1{fill:#2A2523;}
	.st2{clip-path:url(#SVGID_00000164483121121939175360000011983541209336502716_);fill:#2A2523;}
	.st3{clip-path:url(#SVGID_00000116917820469129285780000003645303267788405694_);fill:#2A2523;}
	.st4{clip-path:url(#SVGID_00000116917820469129285780000003645303267788405694_);fill:#AA004F;}
	.st5{clip-path:url(#SVGID_00000171709991234466501950000012077333942627221911_);fill:#2A2523;}
	.st6{clip-path:url(#SVGID_00000171709991234466501950000012077333942627221911_);fill:#AA004F;}
	.st7{fill:#AA004F;}
	.st8{clip-path:url(#SVGID_00000163776804477105556710000007385595656456831932_);fill:#AA004F;}
</style>
<g>
	<g>
		<defs>
			<rect id="SVGID_1_" x="10.01" y="12.79" width="341.67" height="133.23"/>
		</defs>
		<clipPath id="SVGID_00000003069493353794400010000002480176238270112409_">
			<use xlink:href="#SVGID_1_"  style="overflow:visible;"/>
		</clipPath>
		<path style="clip-path:url(#SVGID_00000003069493353794400010000002480176238270112409_);fill:#2A2523;" d="M298.16,56.87
			c0,2.91,0.1,5.79,0.29,8.58h-0.13c-1.75-2.71-3.53-5.31-5.31-7.85l-11.49-16.07h-3.55v28.83h3.56V55.64c0-3.51-0.1-6.57-0.28-9.2
			h0.13c1.55,2.42,3.33,5.04,5.32,7.84l11.48,16.07h3.57V41.52h-3.59V56.87z"/>
	</g>
	<polygon class="st1" points="204.98,57.17 217.59,57.17 217.59,54.01 204.98,54.01 204.98,44.7 219.16,44.7 219.16,41.52 
		201.39,41.52 201.39,70.36 219.98,70.36 219.98,67.18 204.98,67.18 	"/>
	<g>
		<defs>
			<rect id="SVGID_00000072975901128813308830000008484494564376512676_" x="10.01" y="12.79" width="341.67" height="133.23"/>
		</defs>
		<clipPath id="SVGID_00000036973125698778311970000008316435720128232342_">
			<use xlink:href="#SVGID_00000072975901128813308830000008484494564376512676_"  style="overflow:visible;"/>
		</clipPath>
		<path style="clip-path:url(#SVGID_00000036973125698778311970000008316435720128232342_);fill:#2A2523;" d="M240.49,56.41
			c-1.23,3.2-2.36,6.37-3.41,9.52h-0.09c-1.06-3.15-2.21-6.32-3.44-9.52l-5.62-14.83h-3.57l11.11,28.83h3.11l11.11-28.83h-3.57
			L240.49,56.41z"/>
	</g>
	<polygon class="st1" points="258.4,57.17 271.04,57.17 271.04,54.01 258.4,54.01 258.4,44.7 272.6,44.7 272.6,41.52 254.83,41.52 
		254.83,70.36 273.42,70.36 273.42,67.18 258.4,67.18 	"/>
	<polygon class="st1" points="306.33,44.7 316.11,44.7 316.11,70.35 319.68,70.35 319.68,44.7 329.45,44.7 329.45,41.52 
		306.33,41.52 	"/>
	<g>
		<defs>
			<rect id="SVGID_00000116212945977700320030000017929052508125982880_" x="10.01" y="12.79" width="341.67" height="133.23"/>
		</defs>
		<clipPath id="SVGID_00000119808320909449511740000009176969891211232151_">
			<use xlink:href="#SVGID_00000116212945977700320030000017929052508125982880_"  style="overflow:visible;"/>
		</clipPath>
		<path style="clip-path:url(#SVGID_00000119808320909449511740000009176969891211232151_);fill:#2A2523;" d="M350.89,58.71
			c-0.53-0.95-1.23-1.7-2.09-2.27c-0.85-0.6-1.83-1.05-2.92-1.38c-1.1-0.33-2.22-0.64-3.36-0.9c-0.84-0.19-1.65-0.41-2.42-0.64
			c-0.78-0.24-1.45-0.53-2.05-0.89c-0.59-0.35-1.06-0.82-1.41-1.37c-0.34-0.54-0.52-1.25-0.52-2.1c0-0.75,0.13-1.46,0.39-2.07
			c0.25-0.63,0.67-1.16,1.21-1.61c0.53-0.44,1.21-0.77,2.03-1.01c0.83-0.24,1.77-0.34,2.89-0.34c1.49,0.01,2.85,0.18,4.15,0.5
			c1.29,0.3,2.54,0.72,3.75,1.22v-3.26c-1.13-0.48-2.36-0.86-3.7-1.15c-1.37-0.28-2.8-0.45-4.38-0.45c-1.37,0-2.66,0.17-3.87,0.5
			c-1.21,0.34-2.28,0.84-3.22,1.53c-0.93,0.69-1.66,1.57-2.2,2.63c-0.54,1.05-0.81,2.31-0.81,3.77c0,1.41,0.26,2.57,0.79,3.47
			c0.51,0.91,1.19,1.64,2.04,2.21c0.86,0.58,1.83,1.03,2.91,1.35c1.09,0.33,2.2,0.61,3.35,0.87c0.86,0.2,1.68,0.43,2.45,0.64
			c0.77,0.24,1.48,0.53,2.07,0.89c0.59,0.39,1.08,0.84,1.43,1.4c0.35,0.55,0.54,1.28,0.54,2.12c0,1.07-0.21,1.94-0.62,2.64
			c-0.41,0.68-0.95,1.24-1.66,1.64c-0.71,0.41-1.51,0.68-2.44,0.86c-0.92,0.18-1.9,0.26-2.92,0.26c-0.63,0-1.29-0.05-2.03-0.14
			c-0.71-0.08-1.41-0.21-2.11-0.34c-0.69-0.14-1.38-0.34-2.03-0.56c-0.66-0.2-1.23-0.44-1.77-0.7v3.21c0.34,0.21,0.79,0.4,1.38,0.61
			c0.58,0.21,1.25,0.38,1.96,0.53c0.7,0.16,1.49,0.29,2.28,0.39c0.79,0.1,1.58,0.14,2.32,0.14c1.64,0,3.18-0.16,4.54-0.51
			c1.4-0.33,2.59-0.86,3.6-1.56c1.02-0.7,1.81-1.58,2.39-2.67c0.57-1.08,0.85-2.37,0.85-3.86
			C351.67,60.82,351.42,59.63,350.89,58.71"/>
		<path style="clip-path:url(#SVGID_00000119808320909449511740000009176969891211232151_);fill:#AA004F;" d="M307.23,120.8
			c-0.2-0.18-0.43-0.34-0.68-0.46c-0.28-0.1-0.55-0.17-0.85-0.17c-0.3,0-0.56,0.07-0.83,0.17c-0.28,0.12-0.51,0.29-0.68,0.46
			c-0.2,0.21-0.35,0.43-0.46,0.68c-0.11,0.26-0.18,0.56-0.18,0.85c0,0.62,0.21,1.11,0.62,1.51c0.42,0.42,0.93,0.62,1.53,0.62
			c0.3,0,0.57-0.04,0.85-0.15c0.25-0.12,0.49-0.26,0.68-0.46c0.2-0.19,0.35-0.41,0.46-0.66c0.12-0.27,0.15-0.56,0.15-0.85
			c0-0.29-0.03-0.59-0.15-0.85C307.59,121.23,307.43,121.01,307.23,120.8 M312.98,120.8c-0.19-0.18-0.42-0.34-0.68-0.46
			c-0.25-0.1-0.54-0.17-0.84-0.17c-0.3,0-0.57,0.07-0.83,0.17c-0.28,0.12-0.5,0.29-0.7,0.46c-0.19,0.21-0.33,0.43-0.45,0.68
			c-0.12,0.26-0.17,0.56-0.17,0.85c0,0.62,0.2,1.11,0.61,1.51c0.42,0.42,0.93,0.62,1.53,0.62c0.3,0,0.58-0.04,0.84-0.15
			c0.26-0.12,0.5-0.26,0.68-0.46c0.2-0.19,0.35-0.41,0.48-0.66c0.11-0.27,0.16-0.56,0.16-0.85c0-0.29-0.05-0.59-0.16-0.85
			C313.34,121.23,313.18,121.01,312.98,120.8 M348.06,100.02v12h-2.93c-1,0-1.97-0.09-2.83-0.27c-0.89-0.18-1.66-0.51-2.35-0.98
			v-8.54h-3.64v7.5c0,0.78-0.11,1.36-0.36,1.73c-0.25,0.37-0.6,0.56-1.02,0.56h-1.41c-0.97,0-1.89-0.09-2.76-0.26
			c-0.88-0.18-1.68-0.51-2.41-1.02v-6.78h-3.64v5.77c0,0.78-0.12,1.36-0.37,1.73c-0.24,0.37-0.57,0.56-1.02,0.56h-7.38h-0.01h-0.17
			c-1.15,0-2.14-0.11-2.96-0.32c-0.83-0.2-1.54-0.52-2.15-0.93v-10.71H307v9.67c0,0.78-0.13,1.36-0.38,1.73
			c-0.25,0.37-0.6,0.56-1.04,0.56h-4.08h-0.01h-0.01h-0.16c-1.13,0-2.14-0.11-2.96-0.32c-0.84-0.2-1.55-0.52-2.16-0.93v-10.71h-3.64
			v9.67c0,0.78-0.13,1.36-0.36,1.73c-0.25,0.37-0.61,0.56-1.03,0.56h-4.58c-0.37,0-0.68-0.04-0.95-0.13
			c-0.27-0.07-0.51-0.24-0.68-0.5c-0.19-0.26-0.31-0.63-0.41-1.11c-0.09-0.47-0.13-1.13-0.13-1.96v-8.29h-5.38
			c-2.86,0-4.95,0.66-6.31,2.02c-1.37,1.34-2.04,3.36-2.04,6.03v6.76c0,0.74-0.21,1.48-0.61,2.18c-0.4,0.71-0.96,1.33-1.71,1.88
			c-0.75,0.55-1.66,0.99-2.75,1.32c-1.07,0.33-2.28,0.48-3.64,0.48c-1.39,0-2.61-0.11-3.64-0.32c-1.02-0.24-1.91-0.55-2.63-0.94
			c-0.73-0.38-1.33-0.81-1.8-1.32c-0.47-0.52-0.84-1.03-1.11-1.57c-0.27-0.53-0.45-1.07-0.56-1.61c-0.1-0.54-0.14-1.04-0.14-1.5
			c0-0.5,0.03-1.02,0.12-1.53c0.09-0.51,0.2-1.03,0.35-1.51c0.16-0.51,0.33-0.98,0.55-1.43c0.21-0.44,0.45-0.85,0.7-1.2l-3.01-1.63
			c-0.34,0.43-0.66,0.92-0.94,1.48c-0.31,0.56-0.56,1.18-0.77,1.84c-0.21,0.66-0.37,1.35-0.48,2.07c-0.12,0.73-0.19,1.48-0.19,2.22
			c0,0.58,0.08,1.24,0.23,2.01c0.15,0.76,0.43,1.53,0.81,2.34c0.39,0.79,0.91,1.56,1.55,2.34c0.66,0.77,1.49,1.44,2.49,2.05
			c1,0.61,2.2,1.08,3.58,1.44c1.39,0.36,3,0.54,4.85,0.54c1.94,0,3.68-0.29,5.21-0.86c1.51-0.55,2.83-1.34,3.87-2.26
			c1.06-0.92,1.87-2.01,2.43-3.21c0.56-1.19,0.84-2.43,0.84-3.67v-5.97c0-1.07,0.13-1.93,0.41-2.58c0.25-0.65,0.64-1.16,1.13-1.51
			c0.5-0.37,1.09-0.62,1.8-0.74c0.69-0.11,1.49-0.19,2.38-0.19h0.74v6.34c0,1.08,0.13,2,0.45,2.75c0.28,0.76,0.67,1.36,1.16,1.82
			c0.5,0.45,1.05,0.78,1.66,0.99c0.63,0.2,1.27,0.3,1.92,0.3h5.94c0.86,0,1.56-0.19,2.15-0.55c0.54-0.39,1-0.83,1.33-1.38
			c0.66,0.56,1.45,1.03,2.38,1.39c0.94,0.36,2.11,0.54,3.49,0.54h0.21h0.01h0.01h4.84c0.86,0,1.56-0.19,2.13-0.55
			c0.56-0.39,1.02-0.83,1.35-1.38c0.67,0.56,1.46,1.03,2.39,1.39c0.92,0.36,2.09,0.54,3.5,0.54h0.2h0.01h8.12
			c0.87,0,1.58-0.18,2.16-0.54c0.56-0.36,1.01-0.82,1.34-1.36c0.41,0.33,0.85,0.65,1.32,0.88c0.46,0.24,0.96,0.44,1.48,0.58
			c0.5,0.14,1.02,0.25,1.55,0.33c0.53,0.05,1.05,0.1,1.58,0.1h2.18c0.85,0,1.55-0.18,2.11-0.54c0.56-0.34,1.01-0.8,1.35-1.35
			c0.44,0.38,0.91,0.7,1.42,0.93c0.5,0.25,1.03,0.45,1.55,0.59c0.52,0.13,1.04,0.24,1.56,0.29c0.5,0.06,0.98,0.09,1.43,0.09h6.59
			v-15.64H348.06z M266.51,127.88c-0.19-0.2-0.43-0.35-0.68-0.45c-0.28-0.12-0.55-0.18-0.85-0.18c-0.3,0-0.56,0.06-0.82,0.18
			c-0.27,0.1-0.5,0.25-0.68,0.45c-0.2,0.21-0.34,0.43-0.45,0.69c-0.11,0.27-0.19,0.53-0.19,0.84c0,0.59,0.22,1.11,0.62,1.54
			c0.42,0.4,0.92,0.59,1.53,0.59c0.3,0,0.57-0.06,0.85-0.16c0.25-0.11,0.5-0.26,0.68-0.45c0.19-0.19,0.35-0.42,0.46-0.68
			c0.12-0.27,0.17-0.53,0.17-0.84c0-0.31-0.04-0.57-0.17-0.84C266.86,128.31,266.69,128.09,266.51,127.88 M291.4,94.93
			c0.29,0,0.56-0.06,0.84-0.19c0.25-0.1,0.49-0.26,0.69-0.44c0.19-0.19,0.34-0.43,0.45-0.68c0.12-0.26,0.18-0.54,0.18-0.84
			c0-0.3-0.06-0.57-0.18-0.84c-0.11-0.26-0.27-0.48-0.45-0.69c-0.2-0.19-0.44-0.35-0.69-0.45c-0.27-0.11-0.54-0.18-0.84-0.18
			c-0.3,0-0.57,0.06-0.84,0.18c-0.26,0.1-0.49,0.27-0.68,0.45c-0.19,0.21-0.34,0.43-0.45,0.69c-0.11,0.27-0.17,0.54-0.17,0.84
			c0,0.62,0.2,1.11,0.62,1.53C290.3,94.72,290.79,94.93,291.4,94.93 M260.73,127.88c-0.2-0.2-0.42-0.35-0.69-0.45
			c-0.24-0.12-0.53-0.18-0.83-0.18c-0.31,0-0.59,0.06-0.84,0.18c-0.26,0.1-0.49,0.25-0.67,0.45c-0.2,0.21-0.34,0.43-0.47,0.69
			c-0.11,0.27-0.17,0.53-0.17,0.84c0,0.59,0.22,1.11,0.63,1.54c0.4,0.4,0.91,0.59,1.52,0.59c0.3,0,0.58-0.06,0.83-0.16
			c0.28-0.11,0.5-0.26,0.69-0.45c0.2-0.19,0.37-0.42,0.49-0.68c0.11-0.27,0.16-0.53,0.16-0.84c0-0.31-0.05-0.57-0.16-0.84
			C261.1,128.31,260.93,128.09,260.73,127.88 M297.16,94.93c0.3,0,0.59-0.06,0.85-0.19c0.26-0.1,0.47-0.26,0.68-0.44
			c0.2-0.19,0.35-0.43,0.47-0.68c0.11-0.26,0.16-0.54,0.16-0.84c0-0.3-0.06-0.57-0.16-0.84c-0.12-0.26-0.28-0.48-0.47-0.69
			c-0.21-0.19-0.42-0.35-0.68-0.45c-0.25-0.11-0.55-0.18-0.85-0.18c-0.29,0-0.56,0.06-0.84,0.18c-0.26,0.1-0.48,0.27-0.67,0.45
			c-0.19,0.21-0.34,0.43-0.46,0.69c-0.11,0.27-0.17,0.54-0.17,0.84c0,0.62,0.2,1.11,0.61,1.53
			C296.05,94.72,296.56,94.93,297.16,94.93"/>
		<path style="clip-path:url(#SVGID_00000119808320909449511740000009176969891211232151_);fill:#2A2523;" d="M166.08,94.93
			c0.29,0,0.58-0.06,0.86-0.19c0.25-0.1,0.5-0.26,0.7-0.44c0.19-0.19,0.34-0.43,0.45-0.68c0.12-0.26,0.18-0.54,0.18-0.84
			c0-0.3-0.06-0.57-0.18-0.84c-0.11-0.26-0.27-0.48-0.45-0.69c-0.2-0.19-0.44-0.35-0.7-0.45c-0.27-0.11-0.57-0.18-0.86-0.18
			c-0.31,0-0.59,0.06-0.86,0.18c-0.28,0.1-0.48,0.27-0.68,0.45c-0.21,0.21-0.35,0.43-0.48,0.69c-0.1,0.27-0.17,0.54-0.17,0.84
			c0,0.62,0.22,1.11,0.63,1.53C164.94,94.72,165.46,94.93,166.08,94.93"/>
		<path style="clip-path:url(#SVGID_00000119808320909449511740000009176969891211232151_);fill:#2A2523;" d="M199.91,94.93
			c0.3,0,0.57-0.06,0.86-0.19c0.25-0.1,0.48-0.26,0.68-0.44c0.21-0.19,0.35-0.43,0.47-0.68c0.12-0.26,0.18-0.54,0.18-0.84
			c0-0.3-0.06-0.57-0.18-0.84c-0.12-0.26-0.26-0.48-0.47-0.69c-0.2-0.19-0.43-0.35-0.68-0.45c-0.29-0.11-0.56-0.18-0.86-0.18
			c-0.31,0-0.6,0.06-0.85,0.18c-0.28,0.1-0.51,0.27-0.68,0.45c-0.21,0.21-0.35,0.43-0.47,0.69c-0.12,0.27-0.18,0.54-0.18,0.84
			c0,0.62,0.21,1.11,0.63,1.53C198.77,94.72,199.28,94.93,199.91,94.93"/>
		<path style="clip-path:url(#SVGID_00000119808320909449511740000009176969891211232151_);fill:#2A2523;" d="M206.24,94.93
			c0.29,0,0.58-0.06,0.85-0.19c0.27-0.1,0.51-0.26,0.71-0.44c0.2-0.19,0.36-0.43,0.48-0.68c0.1-0.26,0.18-0.54,0.18-0.84
			c0-0.3-0.08-0.57-0.18-0.84c-0.12-0.26-0.28-0.48-0.48-0.69c-0.2-0.19-0.44-0.35-0.71-0.45c-0.26-0.11-0.55-0.18-0.85-0.18
			c-0.31,0-0.57,0.06-0.85,0.18c-0.26,0.1-0.49,0.27-0.69,0.45c-0.19,0.21-0.33,0.43-0.45,0.69c-0.12,0.27-0.18,0.54-0.18,0.84
			c0,0.62,0.21,1.11,0.63,1.53C205.11,94.72,205.63,94.93,206.24,94.93"/>
		<path style="clip-path:url(#SVGID_00000119808320909449511740000009176969891211232151_);fill:#2A2523;" d="M202.99,89.17
			c0.31,0,0.6-0.07,0.86-0.18c0.27-0.12,0.51-0.28,0.68-0.45c0.21-0.19,0.36-0.41,0.49-0.67c0.11-0.27,0.17-0.55,0.17-0.85
			c0-0.29-0.06-0.57-0.17-0.83c-0.12-0.28-0.28-0.5-0.49-0.7c-0.18-0.2-0.42-0.35-0.68-0.46c-0.26-0.12-0.55-0.18-0.86-0.18
			c-0.3,0-0.57,0.06-0.84,0.18c-0.28,0.11-0.51,0.27-0.71,0.46c-0.18,0.2-0.35,0.42-0.46,0.7c-0.1,0.25-0.16,0.54-0.16,0.83
			c0,0.62,0.21,1.14,0.63,1.53C201.87,88.96,202.38,89.17,202.99,89.17"/>
		<path style="clip-path:url(#SVGID_00000119808320909449511740000009176969891211232151_);fill:#2A2523;" d="M180.1,94.93
			c0.3,0,0.58-0.06,0.85-0.19c0.28-0.1,0.51-0.26,0.72-0.44c0.19-0.19,0.34-0.43,0.45-0.68c0.12-0.26,0.18-0.54,0.18-0.84
			c0-0.3-0.05-0.57-0.18-0.84c-0.11-0.26-0.27-0.48-0.45-0.69c-0.21-0.19-0.44-0.35-0.72-0.45c-0.26-0.11-0.55-0.18-0.85-0.18
			c-0.31,0-0.58,0.06-0.85,0.18c-0.27,0.1-0.5,0.27-0.7,0.45c-0.2,0.21-0.35,0.43-0.46,0.69c-0.1,0.27-0.17,0.54-0.17,0.84
			c0,0.62,0.2,1.11,0.62,1.53C178.97,94.72,179.48,94.93,180.1,94.93"/>
		<path style="clip-path:url(#SVGID_00000119808320909449511740000009176969891211232151_);fill:#2A2523;" d="M160.22,94.93
			c0.3,0,0.6-0.06,0.86-0.19c0.26-0.1,0.49-0.26,0.69-0.44c0.2-0.19,0.35-0.43,0.47-0.68c0.12-0.26,0.17-0.54,0.17-0.84
			c0-0.3-0.05-0.57-0.17-0.84c-0.12-0.26-0.27-0.48-0.47-0.69c-0.2-0.19-0.43-0.35-0.69-0.45c-0.26-0.11-0.56-0.18-0.86-0.18
			c-0.29,0-0.58,0.06-0.85,0.18c-0.26,0.1-0.5,0.27-0.69,0.45c-0.18,0.21-0.34,0.43-0.45,0.69c-0.12,0.27-0.18,0.54-0.18,0.84
			c0,0.62,0.21,1.11,0.63,1.53C159.08,94.72,159.61,94.93,160.22,94.93"/>
	</g>
	<rect x="230.08" y="86.63" class="st1" width="3.69" height="29.05"/>
	<g>
		<defs>
			<rect id="SVGID_00000170244188725171556760000011533550321879879044_" x="10.01" y="12.79" width="341.67" height="133.23"/>
		</defs>
		<clipPath id="SVGID_00000117658474698364012390000004117175002219350676_">
			<use xlink:href="#SVGID_00000170244188725171556760000011533550321879879044_"  style="overflow:visible;"/>
		</clipPath>
		<path style="clip-path:url(#SVGID_00000117658474698364012390000004117175002219350676_);fill:#2A2523;" d="M207.28,108.61
			c-0.11,0.5-0.24,0.96-0.4,1.37c-0.17,0.42-0.34,0.83-0.52,1.17c-0.21,0.35-0.38,0.64-0.54,0.87h-1.3c-0.84,0-1.63-0.13-2.36-0.37
			c-0.72-0.24-1.36-0.61-1.92-1.06c-0.54-0.46-0.98-1-1.29-1.65c-0.31-0.64-0.47-1.36-0.47-2.15c0-0.72,0.14-1.36,0.42-1.91
			c0.28-0.53,0.63-0.98,1.06-1.31c0.44-0.35,0.94-0.61,1.49-0.78c0.55-0.16,1.12-0.24,1.68-0.24c0.56,0,1.11,0.09,1.62,0.29
			c0.52,0.2,0.99,0.48,1.38,0.87c0.41,0.38,0.72,0.86,0.95,1.41c0.26,0.57,0.37,1.22,0.37,1.96
			C207.44,107.62,207.39,108.13,207.28,108.61 M217.84,100.02v12h-8.12c0.13-0.28,0.28-0.62,0.45-1.01
			c0.17-0.41,0.32-0.84,0.48-1.32c0.15-0.5,0.29-1.01,0.37-1.56c0.11-0.55,0.17-1.11,0.17-1.7c0-0.99-0.17-1.92-0.47-2.79
			c-0.31-0.86-0.78-1.62-1.41-2.27c-0.62-0.65-1.39-1.17-2.29-1.54c-0.9-0.37-1.97-0.56-3.16-0.56c-1.35,0-2.57,0.22-3.67,0.64
			c-1.1,0.42-2.03,0.99-2.78,1.73c-0.77,0.72-1.34,1.57-1.76,2.53c-0.42,0.96-0.62,1.99-0.62,3.04c0,0.34,0.04,0.73,0.12,1.15
			c0.08,0.4,0.22,0.84,0.4,1.26c0.17,0.44,0.39,0.86,0.65,1.26c0.26,0.41,0.57,0.76,0.95,1.07l0.02,0.09h-9.65h-0.01h-0.02h-0.16
			c-1.17,0-2.18-0.11-3.02-0.32c-0.83-0.2-1.58-0.52-2.18-0.94v-10.71h-3.69v9.67c0,0.78-0.14,1.36-0.39,1.73
			c-0.25,0.37-0.61,0.56-1.03,0.56h-6.51h-0.02h-0.17c-1.16,0-2.16-0.11-3-0.32c-0.85-0.2-1.58-0.52-2.19-0.94v-10.71h-3.7v9.67
			c0,0.78-0.12,1.36-0.37,1.73c-0.24,0.37-0.6,0.56-1.04,0.56h-4.92h-0.01h-0.02h-0.16c-1.28,0-2.38-0.13-3.27-0.38
			c-0.9-0.25-1.68-0.64-2.3-1.17v-10.44h-3.7v9.71c0,0.78-0.14,1.36-0.38,1.73c-0.25,0.37-0.61,0.56-1.05,0.56h-1.42
			c-1.08,0-2.06-0.11-3-0.32c-0.9-0.21-1.71-0.58-2.4-1.08v-8.39h-3.69v7.5c0,0.78-0.13,1.36-0.39,1.73
			c-0.24,0.37-0.58,0.56-1.02,0.56h-1.42c-0.91,0-1.78-0.05-2.6-0.22c-0.85-0.15-1.61-0.41-2.3-0.84c-0.05-0.58-0.12-1.16-0.23-1.79
			c-0.11-0.61-0.24-1.21-0.36-1.8c-0.14-0.58-0.29-1.15-0.45-1.69c-0.17-0.53-0.32-1.01-0.48-1.46l-3.63,1.02
			c0.24,0.53,0.46,1.09,0.64,1.74c0.21,0.63,0.36,1.27,0.49,1.87c0.12,0.63,0.21,1.21,0.29,1.76c0.07,0.57,0.1,1.03,0.1,1.42
			c0,1.36-0.19,2.58-0.57,3.65c-0.38,1.08-0.94,1.98-1.66,2.73c-0.73,0.75-1.62,1.34-2.66,1.72c-1.07,0.41-2.26,0.61-3.62,0.61
			c-1.26,0-2.38-0.2-3.36-0.61c-0.97-0.39-1.8-0.92-2.46-1.61c-0.66-0.68-1.17-1.48-1.5-2.4c-0.34-0.93-0.52-1.92-0.52-2.97
			c0-0.49,0.03-0.98,0.09-1.48c0.09-0.51,0.18-1,0.31-1.48c0.12-0.5,0.28-0.96,0.45-1.4c0.17-0.43,0.36-0.84,0.58-1.17l-3.13-1.73
			c-0.32,0.49-0.6,1.04-0.88,1.64c-0.26,0.61-0.5,1.26-0.68,1.94c-0.2,0.67-0.34,1.37-0.46,2.07c-0.13,0.69-0.18,1.4-0.18,2.07
			c0,1.4,0.23,2.77,0.7,4.04c0.46,1.3,1.18,2.45,2.13,3.42c0.95,0.98,2.13,1.76,3.55,2.35c1.43,0.6,3.13,0.89,5.07,0.89
			c1.78,0,3.37-0.24,4.8-0.74c1.43-0.47,2.65-1.13,3.69-2.01c1.03-0.87,1.86-1.92,2.49-3.12c0.64-1.22,1.08-2.55,1.31-4
			c0.75,0.44,1.58,0.74,2.44,0.9c0.84,0.2,1.71,0.29,2.58,0.29h2.2c0.91,0,1.65-0.19,2.25-0.58c0.56-0.38,1.02-0.86,1.38-1.42
			c0.83,0.75,1.8,1.26,2.86,1.55c1.07,0.3,2.15,0.45,3.23,0.45h2.22c0.93,0,1.69-0.21,2.29-0.62c0.61-0.42,1.06-0.91,1.4-1.51
			c0.34,0.31,0.69,0.61,1.11,0.86c0.41,0.25,0.86,0.47,1.37,0.65c0.51,0.19,1.08,0.35,1.7,0.45c0.61,0.1,1.29,0.17,2.05,0.17h0.2
			h0.03h5.67c0.88,0,1.61-0.19,2.17-0.55c0.58-0.39,1.04-0.83,1.38-1.38c0.66,0.56,1.47,1.03,2.41,1.39
			c0.94,0.37,2.14,0.54,3.56,0.54h0.2h0.02h7.27c0.87,0,1.59-0.19,2.17-0.55c0.56-0.39,1.02-0.83,1.36-1.38
			c0.68,0.56,1.48,1.03,2.43,1.39c0.95,0.37,2.12,0.54,3.56,0.54h0.2h0.01h0.02c0,0,9.35-0.04,12.38-0.04
			c3.03,0,4.85-0.64,4.85-0.64c1.11,0.23,2.34,0.41,3.67,0.51c1.31,0.1,2.78,0.17,4.39,0.17h8.75v-15.64H217.84z"/>
		<path style="clip-path:url(#SVGID_00000117658474698364012390000004117175002219350676_);fill:#2A2523;" d="M220.88,120.8
			c-0.21-0.18-0.44-0.34-0.71-0.46c-0.28-0.1-0.54-0.17-0.85-0.17c-0.31,0-0.57,0.07-0.85,0.17c-0.26,0.12-0.5,0.28-0.69,0.46
			c-0.19,0.21-0.34,0.43-0.45,0.68c-0.12,0.26-0.19,0.56-0.19,0.85c0,0.62,0.21,1.11,0.64,1.51c0.42,0.42,0.93,0.62,1.54,0.62
			c0.31,0,0.57-0.04,0.85-0.15c0.27-0.12,0.5-0.26,0.71-0.46c0.2-0.19,0.35-0.41,0.47-0.66c0.11-0.27,0.18-0.56,0.18-0.85
			c0-0.29-0.07-0.59-0.18-0.85C221.23,121.23,221.08,121.01,220.88,120.8"/>
		<path style="clip-path:url(#SVGID_00000117658474698364012390000004117175002219350676_);fill:#2A2523;" d="M215.03,120.8
			c-0.2-0.18-0.43-0.34-0.7-0.46c-0.25-0.1-0.55-0.17-0.86-0.17c-0.3,0-0.58,0.07-0.85,0.17c-0.26,0.12-0.5,0.28-0.68,0.46
			c-0.2,0.21-0.35,0.43-0.46,0.68c-0.11,0.26-0.18,0.56-0.18,0.85c0,0.62,0.21,1.11,0.62,1.51c0.43,0.42,0.96,0.62,1.55,0.62
			c0.31,0,0.61-0.04,0.86-0.15c0.27-0.12,0.51-0.26,0.7-0.46c0.19-0.19,0.34-0.41,0.47-0.66c0.11-0.27,0.18-0.56,0.18-0.85
			c0-0.29-0.07-0.59-0.18-0.85C215.37,121.23,215.22,121.01,215.03,120.8"/>
		<path style="clip-path:url(#SVGID_00000117658474698364012390000004117175002219350676_);fill:#AA004F;" d="M102.04,55.94
			c0,8.26,6.79,14.95,15.19,14.95c2.29,0,4.46-0.53,6.41-1.42v-3.99c-1.84,1.2-4.04,1.91-6.41,1.91c-6.41,0-11.63-5.14-11.63-11.45
			c0-6.31,5.21-11.44,11.63-11.44c2.37,0,4.57,0.71,6.41,1.91v-3.99c-1.95-0.9-4.12-1.43-6.41-1.43
			C108.83,40.98,102.04,47.69,102.04,55.94"/>
	</g>
	<polygon class="st7" points="136.67,44.7 146.46,44.7 146.46,70.35 150.03,70.35 150.03,44.7 159.81,44.7 159.81,41.52 
		136.67,41.52 	"/>
	<polygon class="st7" points="185.55,41.52 177.06,55.54 176.96,55.54 168.46,41.52 164.57,41.52 175.22,58.76 175.22,70.36 
		178.78,70.36 178.78,58.76 189.44,41.52 	"/>
	<rect x="128.34" y="41.52" class="st7" width="3.58" height="28.83"/>
	<g>
		<defs>
			<rect id="SVGID_00000103949154044149837530000003847730453153266363_" x="10.01" y="12.79" width="341.67" height="133.23"/>
		</defs>
		<clipPath id="SVGID_00000052079183941965339740000008690219050951705788_">
			<use xlink:href="#SVGID_00000103949154044149837530000003847730453153266363_"  style="overflow:visible;"/>
		</clipPath>
		<path style="clip-path:url(#SVGID_00000052079183941965339740000008690219050951705788_);fill:#AA004F;" d="M64.52,136.1
			c-8.32-15.26-1.99-32.33-1.99-32.33l-0.99-0.97c0,0,0,4.56-7.53,5.75c-5.83,0.94-7.55,8.33-7.55,8.33
			c-4.15-12.49,5-19.4,8.67-21.6c4.11,6.45,10.7,11.19,18.43,12.85c-0.31,4.99-1.54,6.43-6.47,11.89
			C60.9,126.91,64.52,136.1,64.52,136.1 M43.68,97.05c-14.06,5.97-17.84-7.92-17.84-7.92c8.74,4.94,14.26,0.98,16.86-2.19
			c1.83-2.22,6.01-2.47,8.32-2.43c0.41,2.52,1.16,4.93,2.17,7.19C44.76,92.84,43.68,97.05,43.68,97.05 M11.55,74.45
			c0,0,13.88,4.97,24.02-1.58c8.06-5.21,15-5,17.45-4.71c-1.54,3.55-2.4,7.46-2.4,11.58c0,0.64,0.02,1.27,0.07,1.9
			C18.13,91.14,11.55,74.45,11.55,74.45 M44.5,56.82c11.3-2.77,14.27,1.19,14.27,1.19l1.38-1.19c0,0-11.09-19.02,12.32-27.54
			c0,0-12.68,13.94-3.37,23.28c-0.82,0.35-1.61,0.75-2.36,1.18c-5.51,2.75-10.02,7.18-12.86,12.63c-6.07,1.22-25.07,3.35-30.2-15.71
			C23.67,50.67,33.18,59.6,44.5,56.82 M88.66,109.92c-0.9,3.77-3.16,7.76-7.53,12.14c-6.24,6.19-4.17,21.02-4.17,21.02
			s-10.72-16.14-5.12-23.1c3.68-4.58,4.32-8.96,4.32-11.42c1.16,0.16,2.32,0.23,3.53,0.23c3.13,0,6.15-0.51,8.97-1.43v-7.29
			c-2.74,1.2-5.77,1.89-8.97,1.89c-12.28,0-22.22-9.94-22.22-22.21c0-12.28,9.94-22.24,22.22-22.24c3.2,0,6.23,0.7,8.97,1.91v-7.3
			c-2.82-0.93-5.84-1.42-8.97-1.42c-2.56,0-5.02,0.33-7.39,0.95c-0.79-0.67-6.14-5.43-1.84-10.84c4.65-5.85,13.33-8.69,11.53-24.4
			c0,0,12.28,7.04,2.54,21.41c0,0-7.47,4.63-3.87,11.06l1.19-0.15c0,0-0.6-2.98,4.34-4.33c0.98-0.27,1.79-0.63,2.48-1.07V12.79
			H10.01v133.24h78.65V109.92z"/>
	</g>
</g>
</svg>
